<?xml version="1.0" encoding="utf-8"?>
<svg version="1.1" id="Layer_1" xmlns="http://www.w3.org/2000/svg" xmlns:xlink="http://www.w3.org/1999/xlink" x="0px" y="0px"
	 viewBox="0 0 48 48" style="enable-background:new 0 0 48 48;" xml:space="preserve">
<style type="text/css">
	.st1{fill:url(#SVGID_1_);}
</style>
<linearGradient id="SVGID_1_" gradientUnits="userSpaceOnUse" x1="24" y1="48" x2="24" y2="-9.094947e-13">
	<stop  offset="0" style="stop-color:#0095FF"/>
	<stop  offset="1" style="stop-color:#19B2FF"/>
</linearGradient>
<path class="st1" d="M25.581,12.8c-0.653-0.002-1.337,0.053-1.999,0.161c-0.671,0.124-1.355,0.301-1.997,0.565
	c-0.646,0.254-1.266,0.588-1.832,0.976c-0.566,0.391-1.077,0.848-1.532,1.329c-0.458,0.48-0.85,1.005-1.186,1.544
	c-0.676,1.078-1.135,2.212-1.47,3.339c-0.175,0.561-0.316,1.124-0.431,1.686c-0.112,0.563-0.22,1.118-0.299,1.676
	c-0.17,1.112-0.281,2.215-0.36,3.313l-0.063,0.901c-0.09-0.369-0.175-0.739-0.256-1.11c-0.162-0.722-0.308-1.447-0.437-2.175
	c-0.068-0.364-0.13-0.728-0.186-1.094c-0.061-0.366-0.117-0.731-0.165-1.098c-0.106-0.733-0.193-1.469-0.266-2.206
	c-0.035-0.369-0.076-0.738-0.102-1.108c-0.025-0.369-0.062-0.741-0.08-1.109l-0.06-1.109l-0.04-1.126
	c-0.01-0.287-0.241-0.522-0.531-0.533c-0.305-0.012-0.561,0.226-0.573,0.532v0.013c-0.028,0.751-0.053,1.502-0.057,2.268
	c-0.009,0.382,0.003,0.76,0.003,1.14c0,0.381,0.014,0.76,0.024,1.14c0.023,0.76,0.06,1.52,0.116,2.279
	c0.023,0.381,0.055,0.76,0.091,1.139c0.031,0.381,0.069,0.76,0.113,1.139c0.081,0.759,0.18,1.516,0.295,2.271
	c0.111,0.756,0.24,1.51,0.382,2.261c0.14,0.752,0.298,1.501,0.465,2.248c0.168,0.747,0.351,1.489,0.541,2.23
	c0.143,0.556,0.664,0.95,1.256,0.91c0.669-0.045,1.174-0.623,1.13-1.292l-0.019-0.285c-0.027-0.405-0.04-0.914-0.017-1.406
	c0.009-0.499,0.039-1.006,0.087-1.514c0.049-0.507,0.091-1.016,0.161-1.522c0.066-0.507,0.15-1.01,0.244-1.51
	c0.373-1.995,0.978-3.939,1.883-5.599c0.45-0.828,0.98-1.574,1.559-2.205c0.293-0.313,0.602-0.594,0.919-0.845
	c0.319-0.251,0.654-0.462,1-0.645c0.345-0.184,0.706-0.334,1.083-0.448c0.378-0.11,0.765-0.208,1.174-0.258
	c0.136-0.018,0.275-0.026,0.413-0.036c0.031,0.002,0.121,0.007,0.152,0.007c3.107,0,4.608,2.093,4.608,6.092V35.19h6.061V23.527
	c0-8.293-5.358-10.732-9.627-10.732C25.707,12.795,25.623,12.799,25.581,12.8 M32.131,0.019c-1.597,0.035-3.187,0.064-4.781,0.117
	c-3.186,0.093-6.372,0.22-9.558,0.397c-1.592,0.087-3.191,0.188-4.801,0.354c-0.805,0.086-1.613,0.212-2.411,0.385
	c-0.62,0.106-1.054,0.674,2.456,0.76c1.574,0.049,3.163,0.174,4.756,0.256c3.186,0.176,6.372,0.304,9.558,0.397
	c1.593,0.053,3.188,0.081,4.776,0.118c1.587,0.03,3.165,0.06,4.649,0.196c0.741,0.072,1.451,0.192,2.142,0.356
	c0.348,0.095,0.683,0.168,0.966,0.291l0.22,0.088l0.229,0.105c0.156,0.064,0.303,0.147,0.454,0.223
	c1.194,0.632,2.225,1.564,3.01,2.684c0.188,0.286,0.372,0.576,0.533,0.88c0.08,0.153,0.162,0.307,0.224,0.452l0.102,0.222
	l0.084,0.241c0.238,0.668,0.401,1.39,0.538,2.122c0.264,1.475,0.355,3.06,0.453,4.647c0.173,3.186,0.325,6.386,0.377,9.578
	c0.028,1.598,0.04,3.194,0.033,4.792c-0.002,0.798-0.006,1.597-0.019,2.394c-0.01,0.797-0.03,1.592-0.067,2.382
	c-0.034,0.79-0.098,1.574-0.198,2.342c-0.104,0.768-0.264,1.515-0.487,2.24c-0.052,0.186-0.116,0.352-0.173,0.527
	c-0.069,0.167-0.142,0.327-0.217,0.493c-0.164,0.329-0.343,0.651-0.547,0.956c-0.403,0.612-0.88,1.17-1.413,1.658
	c-0.539,0.484-1.133,0.897-1.764,1.23c-0.315,0.17-0.643,0.309-0.973,0.438c-0.163,0.058-0.319,0.11-0.481,0.163
	c-0.174,0.039-0.33,0.084-0.515,0.119c-0.716,0.154-1.441,0.243-2.189,0.283c-0.747,0.049-1.513,0.056-2.291,0.047l-9.523-0.205
	l-4.779-0.091l-4.773-0.074c-0.79-0.013-1.573-0.039-2.34-0.066c-0.766-0.03-1.516-0.076-2.228-0.169
	c-0.708-0.096-1.406-0.219-2.049-0.412L8.889,43.86c-0.072-0.026-0.138-0.056-0.208-0.083c-0.134-0.048-0.282-0.117-0.431-0.186
	c-0.295-0.136-0.578-0.298-0.858-0.463c-1.104-0.691-2.035-1.661-2.689-2.8c-0.078-0.145-0.164-0.285-0.231-0.435l-0.109-0.222
	l-0.09-0.21c-0.028-0.072-0.063-0.136-0.087-0.212l-0.073-0.23c-0.05-0.149-0.096-0.332-0.144-0.497
	c-0.174-0.679-0.306-1.379-0.391-2.117c-0.167-1.477-0.207-3.061-0.253-4.651l-0.171-4.789c-0.052-1.598-0.132-3.195-0.205-4.791
	L2.84,19.78l-0.134-2.396c-0.08-1.598-0.203-3.191-0.249-4.77C2.349,9.1,1.881,9.73,1.751,10.158
	c-0.168,0.801-0.286,1.61-0.37,2.416c-0.162,1.613-0.258,3.216-0.344,4.811L0.903,19.78l-0.113,2.396
	c-0.073,1.597-0.153,3.194-0.205,4.791l-0.17,4.793c-0.036,1.603-0.087,3.218,0.013,4.925c0.056,0.853,0.157,1.736,0.353,2.611
	c0.055,0.222,0.099,0.428,0.166,0.662l0.097,0.344c0.034,0.115,0.084,0.232,0.125,0.347l0.133,0.346l0.142,0.322
	c0.091,0.217,0.202,0.424,0.307,0.635c0.866,1.67,2.194,3.092,3.77,4.126c0.398,0.253,0.808,0.49,1.236,0.689
	c0.213,0.099,0.426,0.199,0.665,0.289c0.117,0.045,0.233,0.094,0.349,0.134l0.345,0.105c0.884,0.264,1.759,0.432,2.631,0.532
	c1.739,0.196,3.369,0.184,4.976,0.167l4.786-0.07l4.779-0.09l4.779-0.098c1.593-0.046,3.184-0.059,4.813-0.165
	c0.814-0.05,1.64-0.118,2.478-0.234c0.837-0.12,1.686-0.306,2.509-0.565c0.203-0.059,0.424-0.142,0.633-0.212
	c0.211-0.089,0.426-0.183,0.63-0.279c0.397-0.198,0.785-0.41,1.153-0.654c0.738-0.482,1.413-1.052,2.005-1.695
	c0.589-0.644,1.096-1.359,1.505-2.121c0.208-0.379,0.38-0.776,0.541-1.174c0.076-0.206,0.154-0.415,0.221-0.623
	c0.054-0.209,0.116-0.421,0.158-0.624c0.189-0.818,0.302-1.65,0.359-2.47c0.066-0.821,0.077-1.634,0.086-2.44
	c0.007-1.613-0.026-3.208-0.026-4.805c-0.007-1.598,0.005-3.194,0.034-4.792c0.049-3.196,0.208-6.384,0.371-9.586
	c0.074-1.605,0.159-3.222,0.041-4.92c-0.059-0.852-0.191-1.706-0.409-2.569l-0.087-0.334l-0.116-0.336
	c-0.076-0.23-0.164-0.438-0.251-0.647c-0.083-0.213-0.19-0.413-0.287-0.62c-0.103-0.204-0.221-0.399-0.332-0.599
	c-0.47-0.783-1.041-1.507-1.7-2.146c-0.655-0.643-1.399-1.195-2.203-1.642c-0.202-0.109-0.402-0.223-0.612-0.317l-0.313-0.144
	l-0.336-0.135c-0.226-0.097-0.45-0.163-0.673-0.228c-0.226-0.068-0.43-0.116-0.647-0.174c-0.859-0.207-1.73-0.322-2.575-0.393
	C36.061,0.021,35.115,0,34.182,0C33.493,0,32.811,0.011,32.131,0.019"/>
</svg>
