<svg width="60" height="60" xmlns="http://www.w3.org/2000/svg" xmlns:xlink="http://www.w3.org/1999/xlink"><defs><path d="M32.227 15h-.164c-.868 0-1.758.07-2.649.21-.89.165-1.805.4-2.648.75a12.81 12.81 0 0 0-2.438 1.313c-.75.516-1.43 1.125-2.039 1.782a12.136 12.136 0 0 0-1.594 2.062c-.914 1.453-1.523 2.953-1.968 4.477-.235.75-.422 1.5-.586 2.25-.141.75-.305 1.5-.399 2.25-.234 1.5-.375 2.976-.492 4.43l-.094 1.195-.351-1.477a63.77 63.77 0 0 1-.586-2.906c-.094-.492-.164-.984-.258-1.477-.07-.492-.164-.984-.211-1.476a63.347 63.347 0 0 1-.352-2.953l-.14-1.477c-.024-.492-.094-.984-.117-1.476L15.07 21l-.048-1.5c-.023-.375-.328-.703-.703-.703-.398-.024-.75.305-.773.703v.023a65.322 65.322 0 0 0-.07 3.047v1.524c0 .515.023 1.008.023 1.523.023 1.008.07 2.04.164 3.047.024.516.07 1.008.117 1.523.047.516.094 1.008.14 1.524.118 1.008.235 2.039.4 3.047.14 1.008.327 2.015.515 3.023a61.81 61.81 0 0 0 .633 3c.234 1.008.469 1.992.726 2.977a1.63 1.63 0 0 0 1.688 1.219 1.66 1.66 0 0 0 1.523-1.735l-.023-.375a16.309 16.309 0 0 1-.024-1.875c.024-.68.047-1.36.118-2.039.07-.68.117-1.36.21-2.039.094-.68.211-1.36.329-2.016.492-2.671 1.312-5.273 2.53-7.5.61-1.101 1.313-2.109 2.087-2.953a9.291 9.291 0 0 1 1.242-1.125c.422-.328.867-.61 1.336-.867a7.933 7.933 0 0 1 1.453-.61c.516-.14 1.031-.28 1.57-.35.188-.024.375-.024.563-.048h.14c4.172 0 6.118 2.813 6.118 8.157V45h7.968V29.367C45 18.257 37.97 15 32.227 15z" id="a"/></defs><g fill="none" fill-rule="evenodd"><path d="M51.146 1.027C47.903 0 44.824 0 38.801 0H20.61c-6.023 0-9.004 0-12.243 1.027C4.83 2.316 2.181 5.1.892 8.644-.134 11.887.007 14.897.007 20.92v18.164c0 6.024-.141 9.033.885 12.277 1.29 3.539 4.008 6.328 7.546 7.617C11.678 60 14.621 60 20.643 60h18.158c6.023 0 9.032 0 12.275-1.027 3.539-1.289 6.468-4.078 7.757-7.617C59.859 48.112 60 45.103 60 39.08V20.92c0-6.023-.14-9.033-1.167-12.276-1.289-3.544-4.148-6.328-7.687-7.617z" fill="#009FE3" fill-rule="nonzero"/><use fill="#FFF" xlink:href="#a"/></g></svg>