<svg width="60" height="60" xmlns="http://www.w3.org/2000/svg" xmlns:xlink="http://www.w3.org/1999/xlink"><defs><path d="M45 11.25H30.166l-9.85 23.936-5.56-14.314L7.5 24.706v1.544h3.984l6.343 16.875h1.11l12.389-30H45V11.25zm-2.977 19.172c3.3-1.702 6.327-4.25 5.447-7.783-1.634-6.567-11.292-2.047-14.286.429-.446.368.139 1.116.615.797a22.333 22.333 0 0 1 5.153-2.572c2.312-.804 8.86-.643 6.691 3.758-1.402 2.844-6.369 4.11-9.172 4.784-1.438.346-1.156 2.803.354 2.62 6.36-.769 13.809 6.537 5.606 9.91-3.858 1.585-9.396 1.738-12.445-1.492-1.021-1.082-3.248.034-2.63 1.531 2.794 6.782 14.486 5.222 19.181 1.528 6.483-5.1 1.581-11.423-4.514-13.51z" id="a"/></defs><g fill="none" fill-rule="evenodd"><path d="M51.146 1.027C47.903 0 44.824 0 38.801 0H20.61c-6.023 0-9.004 0-12.243 1.027C4.83 2.316 2.181 5.1.892 8.644-.134 11.887.007 14.897.007 20.92v18.164c0 6.024-.141 9.033.885 12.277 1.29 3.539 4.008 6.328 7.546 7.617C11.678 60 14.621 60 20.643 60h18.158c6.023 0 9.032 0 12.275-1.027 3.539-1.289 6.468-4.078 7.757-7.617C59.859 48.112 60 45.103 60 39.08V20.92c0-6.023-.14-9.033-1.167-12.276-1.289-3.544-4.148-6.328-7.687-7.617z" fill="#FFF" fill-rule="nonzero"/><use fill="#1A9FFF" xlink:href="#a"/></g></svg>
