<svg xmlns="http://www.w3.org/2000/svg" fill="none" width="32px" height="32px" viewBox="0 0 32 32">
  <path fill="url(#acalculator)" d="M10.098 23h-.592l-3.383-9H3.998v-.822l3.87-2.045 2.965 7.635L16.086 6h7.913v1h-7.293l-6.608 16Zm14.72.43c-2.504 1.97-8.74 2.803-10.23-.815-.33-.797.858-1.395 1.403-.817 1.625 1.722 4.58 1.64 6.638.795 4.375-1.798.402-5.695-2.99-5.285-.805.097-.956-1.213-.19-1.398 1.495-.36 4.145-1.035 4.892-2.552 1.158-2.348-2.335-2.433-3.567-2.005-.983.34-1.888.795-2.748 1.372-.255.17-.565-.23-.328-.425 1.598-1.32 6.748-3.73 7.62-.227.47 1.885-1.144 3.242-2.904 4.15 3.247 1.115 5.862 4.487 2.405 7.207Z"/>
  <defs>
    <linearGradient id="acalculator" x1="-5.611" x2="-5.611" y1="6.002" y2="25.116" gradientUnits="userSpaceOnUse">
      <stop offset="0" stop-color="#19B2FF"/>
      <stop offset="1" stop-color="#0095FF"/>
    </linearGradient>
  </defs>
</svg>
