<svg xmlns="http://www.w3.org/2000/svg" fill="none" width="32px" height="32px" viewBox="0 0 32 32">
  <path fill="url(#a)" d="M17.685 7.79h-.071c-.504 0-1.007.036-1.506.108a8.26 8.26 0 0 0-1.542.43 6.565 6.565 0 0 0-1.4.753 7.96 7.96 0 0 0-1.183 1 6.84 6.84 0 0 0-.9 1.183A11.813 11.813 0 0 0 9.94 13.85c-.141.421-.25.853-.323 1.291-.072.43-.179.861-.215 1.291-.143.861-.215 1.685-.286 2.546l-.036.681a7.418 7.418 0 0 1-.179-.861c-.108-.538-.251-1.112-.322-1.685-.036-.287-.108-.574-.144-.825a7.113 7.113 0 0 0-.143-.861c-.071-.574-.143-1.112-.215-1.685a7.032 7.032 0 0 1-.072-.861c-.036-.287-.036-.574-.072-.861l-.036-.861-.035-.861a.4.4 0 0 0-.395-.394.407.407 0 0 0-.43.394c-.036.574-.036 1.147-.036 1.757v.861a6.88 6.88 0 0 0 .036.861c0 .574.036 1.183.072 1.757.036.287.036.574.072.861.036.287.036.574.072.861.072.574.143 1.147.215 1.757.072.574.179 1.147.287 1.721.108.574.215 1.147.359 1.721l.43 1.721a.905.905 0 0 0 .968.681.928.928 0 0 0 .861-1v-.215a5.344 5.344 0 0 1 0-1.076c0-.394.035-.789.071-1.147l.108-1.183c.04-.385.099-.768.179-1.147.26-1.497.743-2.947 1.434-4.3a8.758 8.758 0 0 1 1.183-1.685c.212-.243.453-.46.717-.645.251-.179.5-.359.753-.5.265-.141.541-.261.825-.359.287-.072.574-.143.9-.215.108 0 .215-.036.322-.036h.072c2.4 0 3.514 1.614 3.514 4.7v8.964H25v-8.976c0-6.382-4.051-8.247-7.315-8.247Z"/>
  <defs>
    <linearGradient id="a" x1="6.856" x2="7.202" y1="7.79" y2="25.014" gradientUnits="userSpaceOnUse">
      <stop stop-color="#19B2FF"/>
      <stop offset="1" stop-color="#0095FF"/>
    </linearGradient>
  </defs>
</svg>
